{
    "asset" : {
        "generator" : "Khronos glTF Blender I/O v1.1.46",
        "version" : "2.0"
    },
    "scene" : 0,
    "scenes" : [
        {
            "name" : "Scene",
            "nodes" : [
                0,
                1,
                2,
                3,
                4,
                5,
                6,
                7,
                8,
                9,
                10,
                11,
                12,
                13,
                14,
                15,
                16,
                17
            ]
        }
    ],
    "nodes" : [
        {
            "mesh" : 0,
            "name" : "Cube1",
            "translation" : [
                4,
                1.5,
                -4
            ]
        },
        {
            "mesh" : 1,
            "name" : "Cube0",
            "scale" : [
                8,
                0.10000000149011612,
                8
            ]
        },
        {
            "mesh" : 0,
            "name" : "Cube2",
            "scale" : [
                0.800000011920929,
                0.800000011920929,
                0.800000011920929
            ],
            "translation" : [
                0,
                1.5,
                -4
            ]
        },
        {
            "mesh" : 0,
            "name" : "Cube3",
            "scale" : [
                0.6000000238418579,
                0.6000000238418579,
                0.6000000238418579
            ],
            "translation" : [
                -4,
                1.5,
                -4
            ]
        },
        {
            "mesh" : 2,
            "name" : "Cube4",
            "scale" : [
                0.800000011920929,
                0.800000011920929,
                0.800000011920929
            ],
            "translation" : [
                4,
                1.5,
                0
            ]
        },
        {
            "mesh" : 2,
            "name" : "Cube5",
            "scale" : [
                0.6000000238418579,
                0.6000000238418579,
                0.6000000238418579
            ],
            "translation" : [
                4,
                1.5,
                4
            ]
        },
        {
            "mesh" : 3,
            "name" : "Torus1",
            "translation" : [
                0,
                1.5,
                0
            ]
        },
        {
            "mesh" : 3,
            "name" : "Torus0",
            "scale" : [
                1.5,
                1.5,
                1.5
            ],
            "translation" : [
                0,
                0.5,
                0
            ]
        },
        {
            "mesh" : 3,
            "name" : "Torus2",
            "scale" : [
                0.699999988079071,
                0.699999988079071,
                0.699999988079071
            ],
            "translation" : [
                0,
                2.5,
                0
            ]
        },
        {
            "mesh" : 4,
            "name" : "Sphere0",
            "translation" : [
                -2,
                0,
                -9
            ]
        },
        {
            "mesh" : 5,
            "name" : "Sphere1",
            "translation" : [
                0,
                0,
                -9
            ]
        },
        {
            "mesh" : 6,
            "name" : "Sphere2",
            "translation" : [
                2,
                0,
                -9
            ]
        },
        {
            "mesh" : 7,
            "name" : "Sphere4",
            "translation" : [
                9,
                0,
                0
            ]
        },
        {
            "mesh" : 8,
            "name" : "Sphere5",
            "translation" : [
                9,
                0,
                2
            ]
        },
        {
            "mesh" : 9,
            "name" : "Sphere3",
            "translation" : [
                9,
                0,
                -2
            ]
        },
        {
            "mesh" : 10,
            "name" : "Pyramide0",
            "scale" : [
                0.800000011920929,
                0.800000011920929,
                0.800000011920929
            ],
            "translation" : [
                4,
                2,
                -7
            ]
        },
        {
            "mesh" : 11,
            "name" : "Pyramide1",
            "scale" : [
                0.800000011920929,
                0.800000011920929,
                0.800000011920929
            ],
            "translation" : [
                7,
                2,
                -4
            ]
        },
        {
            "mesh" : 12,
            "name" : "BigSphere",
            "translation" : [
                8,
                2.5,
                -8
            ]
        }
    ],
    "materials" : [
        {
            "name" : "Material1",
            "pbrMetallicRoughness" : {
                "baseColorFactor" : [
                    0.8000000715255737,
                    0.4722079038619995,
                    0.22387568652629852,
                    1
                ],
                "metallicFactor" : 0,
                "roughnessFactor" : 0.5
            }
        },
        {
            "name" : "Material0",
            "pbrMetallicRoughness" : {
                "baseColorFactor" : [
                    0.6155859231948853,
                    0.8000000715255737,
                    0.36473289132118225,
                    1
                ],
                "metallicFactor" : 0,
                "roughnessFactor" : 0.5
            }
        },
        {
            "name" : "Material2",
            "pbrMetallicRoughness" : {
                "baseColorFactor" : [
                    0.8000000715255737,
                    0.27664172649383545,
                    0.34314173460006714,
                    1
                ],
                "metallicFactor" : 0,
                "roughnessFactor" : 0.5
            }
        },
        {
            "name" : "Material3",
            "pbrMetallicRoughness" : {
                "baseColorFactor" : [
                    0.2782464325428009,
                    0.35885146260261536,
                    0.8000000715255737,
                    1
                ],
                "metallicFactor" : 0,
                "roughnessFactor" : 0.5
            }
        },
        {
            "name" : "Material4",
            "pbrMetallicRoughness" : {
                "baseColorFactor" : [
                    1,
                    0.40000006556510925,
                    0.40000006556510925,
                    1
                ],
                "metallicFactor" : 0,
                "roughnessFactor" : 0.5
            }
        },
        {
            "name" : "Material5",
            "pbrMetallicRoughness" : {
                "baseColorFactor" : [
                    0.8000000715255737,
                    0.09999977797269821,
                    0.09999977797269821,
                    1
                ],
                "metallicFactor" : 0,
                "roughnessFactor" : 0.5
            }
        },
        {
            "name" : "Material6",
            "pbrMetallicRoughness" : {
                "baseColorFactor" : [
                    0.800000011920929,
                    0,
                    0,
                    1
                ],
                "metallicFactor" : 0,
                "roughnessFactor" : 0.5
            }
        },
        {
            "name" : "Material8",
            "pbrMetallicRoughness" : {
                "baseColorFactor" : [
                    0.20000000298023224,
                    0.800000011920929,
                    0.20000000298023224,
                    1
                ],
                "metallicFactor" : 0,
                "roughnessFactor" : 0.5
            }
        },
        {
            "name" : "Material7",
            "pbrMetallicRoughness" : {
                "baseColorFactor" : [
                    0.400000661611557,
                    0.8000000715255737,
                    0.40000006556510925,
                    1
                ],
                "metallicFactor" : 0,
                "roughnessFactor" : 0.5
            }
        },
        {
            "name" : "Material9",
            "pbrMetallicRoughness" : {
                "baseColorFactor" : [
                    0,
                    0.800000011920929,
                    0,
                    1
                ],
                "metallicFactor" : 0,
                "roughnessFactor" : 0.5
            }
        }
    ],
    "meshes" : [
        {
            "name" : "Cube",
            "primitives" : [
                {
                    "attributes" : {
                        "POSITION" : 0,
                        "NORMAL" : 1,
                        "TEXCOORD_0" : 2
                    },
                    "indices" : 3,
                    "material" : 0
                }
            ]
        },
        {
            "name" : "Cube",
            "primitives" : [
                {
                    "attributes" : {
                        "POSITION" : 0,
                        "NORMAL" : 1,
                        "TEXCOORD_0" : 2
                    },
                    "indices" : 3,
                    "material" : 1
                }
            ]
        },
        {
            "name" : "Cube",
            "primitives" : [
                {
                    "attributes" : {
                        "POSITION" : 0,
                        "NORMAL" : 1,
                        "TEXCOORD_0" : 2
                    },
                    "indices" : 3,
                    "material" : 2
                }
            ]
        },
        {
            "name" : "Torus",
            "primitives" : [
                {
                    "attributes" : {
                        "POSITION" : 4,
                        "NORMAL" : 5,
                        "TEXCOORD_0" : 6
                    },
                    "indices" : 7,
                    "material" : 3
                }
            ]
        },
        {
            "name" : "Sphere",
            "primitives" : [
                {
                    "attributes" : {
                        "POSITION" : 8,
                        "NORMAL" : 9,
                        "TEXCOORD_0" : 10
                    },
                    "indices" : 11,
                    "material" : 4
                }
            ]
        },
        {
            "name" : "Sphere",
            "primitives" : [
                {
                    "attributes" : {
                        "POSITION" : 8,
                        "NORMAL" : 9,
                        "TEXCOORD_0" : 10
                    },
                    "indices" : 11,
                    "material" : 5
                }
            ]
        },
        {
            "name" : "Sphere",
            "primitives" : [
                {
                    "attributes" : {
                        "POSITION" : 8,
                        "NORMAL" : 9,
                        "TEXCOORD_0" : 10
                    },
                    "indices" : 11,
                    "material" : 6
                }
            ]
        },
        {
            "name" : "Sphere",
            "primitives" : [
                {
                    "attributes" : {
                        "POSITION" : 8,
                        "NORMAL" : 9,
                        "TEXCOORD_0" : 10
                    },
                    "indices" : 11,
                    "material" : 7
                }
            ]
        },
        {
            "name" : "Sphere",
            "primitives" : [
                {
                    "attributes" : {
                        "POSITION" : 8,
                        "NORMAL" : 9,
                        "TEXCOORD_0" : 10
                    },
                    "indices" : 11,
                    "material" : 8
                }
            ]
        },
        {
            "name" : "Sphere",
            "primitives" : [
                {
                    "attributes" : {
                        "POSITION" : 8,
                        "NORMAL" : 9,
                        "TEXCOORD_0" : 10
                    },
                    "indices" : 11,
                    "material" : 9
                }
            ]
        },
        {
            "name" : "Pyramide",
            "primitives" : [
                {
                    "attributes" : {
                        "POSITION" : 12,
                        "NORMAL" : 13,
                        "TEXCOORD_0" : 14
                    },
                    "indices" : 15,
                    "material" : 2
                }
            ]
        },
        {
            "name" : "Pyramide",
            "primitives" : [
                {
                    "attributes" : {
                        "POSITION" : 12,
                        "NORMAL" : 13,
                        "TEXCOORD_0" : 14
                    },
                    "indices" : 15,
                    "material" : 3
                }
            ]
        },
        {
            "name" : "BigSphere",
            "primitives" : [
                {
                    "attributes" : {
                        "POSITION" : 16,
                        "NORMAL" : 17,
                        "TEXCOORD_0" : 18
                    },
                    "indices" : 19,
                    "material" : 4
                },
                {
                    "attributes" : {
                        "POSITION" : 20,
                        "NORMAL" : 21,
                        "TEXCOORD_0" : 22
                    },
                    "indices" : 23,
                    "material" : 5
                },
                {
                    "attributes" : {
                        "POSITION" : 24,
                        "NORMAL" : 25,
                        "TEXCOORD_0" : 26
                    },
                    "indices" : 27,
                    "material" : 6
                }
            ]
        }
    ],
    "accessors" : [
        {
            "bufferView" : 0,
            "componentType" : 5126,
            "count" : 24,
            "max" : [
                1,
                1,
                1
            ],
            "min" : [
                -1,
                -1,
                -1
            ],
            "type" : "VEC3"
        },
        {
            "bufferView" : 1,
            "componentType" : 5126,
            "count" : 24,
            "type" : "VEC3"
        },
        {
            "bufferView" : 2,
            "componentType" : 5126,
            "count" : 24,
            "type" : "VEC2"
        },
        {
            "bufferView" : 3,
            "componentType" : 5123,
            "count" : 36,
            "type" : "SCALAR"
        },
        {
            "bufferView" : 4,
            "componentType" : 5126,
            "count" : 1225,
            "max" : [
                1.2000000476837158,
                0.20000000298023224,
                1.2000000476837158
            ],
            "min" : [
                -1.2000000476837158,
                -0.20000000298023224,
                -1.2000000476837158
            ],
            "type" : "VEC3"
        },
        {
            "bufferView" : 5,
            "componentType" : 5126,
            "count" : 1225,
            "type" : "VEC3"
        },
        {
            "bufferView" : 6,
            "componentType" : 5126,
            "count" : 1225,
            "type" : "VEC2"
        },
        {
            "bufferView" : 7,
            "componentType" : 5123,
            "count" : 6912,
            "type" : "SCALAR"
        },
        {
            "bufferView" : 8,
            "componentType" : 5126,
            "count" : 559,
            "max" : [
                0.5000001192092896,
                0.5,
                0.5000001788139343
            ],
            "min" : [
                -0.49999991059303284,
                -0.5,
                -0.5
            ],
            "type" : "VEC3"
        },
        {
            "bufferView" : 9,
            "componentType" : 5126,
            "count" : 559,
            "type" : "VEC3"
        },
        {
            "bufferView" : 10,
            "componentType" : 5126,
            "count" : 559,
            "type" : "VEC2"
        },
        {
            "bufferView" : 11,
            "componentType" : 5123,
            "count" : 2880,
            "type" : "SCALAR"
        },
        {
            "bufferView" : 12,
            "componentType" : 5126,
            "count" : 16,
            "max" : [
                1.4142136573791504,
                2,
                1.4142136573791504
            ],
            "min" : [
                -1.4142135381698608,
                -2,
                -1.4142135381698608
            ],
            "type" : "VEC3"
        },
        {
            "bufferView" : 13,
            "componentType" : 5126,
            "count" : 16,
            "type" : "VEC3"
        },
        {
            "bufferView" : 14,
            "componentType" : 5126,
            "count" : 16,
            "type" : "VEC2"
        },
        {
            "bufferView" : 15,
            "componentType" : 5123,
            "count" : 18,
            "type" : "SCALAR"
        },
        {
            "bufferView" : 16,
            "componentType" : 5126,
            "count" : 230,
            "max" : [
                1.8477593660354614,
                2,
                1.84775972366333
            ],
            "min" : [
                -1.8477588891983032,
                0.7653668522834778,
                -1.8477590084075928
            ],
            "type" : "VEC3"
        },
        {
            "bufferView" : 17,
            "componentType" : 5126,
            "count" : 230,
            "type" : "VEC3"
        },
        {
            "bufferView" : 18,
            "componentType" : 5126,
            "count" : 230,
            "type" : "VEC2"
        },
        {
            "bufferView" : 19,
            "componentType" : 5123,
            "count" : 1056,
            "type" : "SCALAR"
        },
        {
            "bufferView" : 20,
            "componentType" : 5126,
            "count" : 165,
            "max" : [
                2.000000476837158,
                0.7653668522834778,
                2.0000007152557373
            ],
            "min" : [
                -1.9999996423721313,
                -0.7653665542602539,
                -2
            ],
            "type" : "VEC3"
        },
        {
            "bufferView" : 21,
            "componentType" : 5126,
            "count" : 165,
            "type" : "VEC3"
        },
        {
            "bufferView" : 22,
            "componentType" : 5126,
            "count" : 165,
            "type" : "VEC2"
        },
        {
            "bufferView" : 23,
            "componentType" : 5123,
            "count" : 768,
            "type" : "SCALAR"
        },
        {
            "bufferView" : 24,
            "componentType" : 5126,
            "count" : 230,
            "max" : [
                1.8477593660354614,
                -0.7653665542602539,
                1.84775972366333
            ],
            "min" : [
                -1.8477588891983032,
                -2,
                -1.8477580547332764
            ],
            "type" : "VEC3"
        },
        {
            "bufferView" : 25,
            "componentType" : 5126,
            "count" : 230,
            "type" : "VEC3"
        },
        {
            "bufferView" : 26,
            "componentType" : 5126,
            "count" : 230,
            "type" : "VEC2"
        },
        {
            "bufferView" : 27,
            "componentType" : 5123,
            "count" : 1056,
            "type" : "SCALAR"
        }
    ],
    "bufferViews" : [
        {
            "buffer" : 0,
            "byteLength" : 288,
            "byteOffset" : 0
        },
        {
            "buffer" : 0,
            "byteLength" : 288,
            "byteOffset" : 288
        },
        {
            "buffer" : 0,
            "byteLength" : 192,
            "byteOffset" : 576
        },
        {
            "buffer" : 0,
            "byteLength" : 72,
            "byteOffset" : 768
        },
        {
            "buffer" : 0,
            "byteLength" : 14700,
            "byteOffset" : 840
        },
        {
            "buffer" : 0,
            "byteLength" : 14700,
            "byteOffset" : 15540
        },
        {
            "buffer" : 0,
            "byteLength" : 9800,
            "byteOffset" : 30240
        },
        {
            "buffer" : 0,
            "byteLength" : 13824,
            "byteOffset" : 40040
        },
        {
            "buffer" : 0,
            "byteLength" : 6708,
            "byteOffset" : 53864
        },
        {
            "buffer" : 0,
            "byteLength" : 6708,
            "byteOffset" : 60572
        },
        {
            "buffer" : 0,
            "byteLength" : 4472,
            "byteOffset" : 67280
        },
        {
            "buffer" : 0,
            "byteLength" : 5760,
            "byteOffset" : 71752
        },
        {
            "buffer" : 0,
            "byteLength" : 192,
            "byteOffset" : 77512
        },
        {
            "buffer" : 0,
            "byteLength" : 192,
            "byteOffset" : 77704
        },
        {
            "buffer" : 0,
            "byteLength" : 128,
            "byteOffset" : 77896
        },
        {
            "buffer" : 0,
            "byteLength" : 36,
            "byteOffset" : 78024
        },
        {
            "buffer" : 0,
            "byteLength" : 2760,
            "byteOffset" : 78060
        },
        {
            "buffer" : 0,
            "byteLength" : 2760,
            "byteOffset" : 80820
        },
        {
            "buffer" : 0,
            "byteLength" : 1840,
            "byteOffset" : 83580
        },
        {
            "buffer" : 0,
            "byteLength" : 2112,
            "byteOffset" : 85420
        },
        {
            "buffer" : 0,
            "byteLength" : 1980,
            "byteOffset" : 87532
        },
        {
            "buffer" : 0,
            "byteLength" : 1980,
            "byteOffset" : 89512
        },
        {
            "buffer" : 0,
            "byteLength" : 1320,
            "byteOffset" : 91492
        },
        {
            "buffer" : 0,
            "byteLength" : 1536,
            "byteOffset" : 92812
        },
        {
            "buffer" : 0,
            "byteLength" : 2760,
            "byteOffset" : 94348
        },
        {
            "buffer" : 0,
            "byteLength" : 2760,
            "byteOffset" : 97108
        },
        {
            "buffer" : 0,
            "byteLength" : 1840,
            "byteOffset" : 99868
        },
        {
            "buffer" : 0,
            "byteLength" : 2112,
            "byteOffset" : 101708
        }
    ],
    "buffers" : [
        {
            "byteLength" : 103820,
            "uri" : "buffer.bin"
        }
    ]
}
